<svg width="32" height="32" viewBox="0 0 32 32" fill="none" xmlns="http://www.w3.org/2000/svg">
  <!-- Koala head -->
  <ellipse cx="16" cy="12" rx="8" ry="6" fill="#88C6ED"/>
  
  <!-- Koala ears -->
  <ellipse cx="12" cy="8" rx="3" ry="4" fill="#88C6ED"/>
  <ellipse cx="20" cy="8" rx="3" ry="4" fill="#88C6ED"/>
  
  <!-- Koala eyes -->
  <circle cx="13" cy="10" r="1.5" fill="#1a365d"/>
  <circle cx="19" cy="10" r="1.5" fill="#1a365d"/>
  
  <!-- Eye highlights -->
  <circle cx="13.5" cy="9.5" r="0.5" fill="white"/>
  <circle cx="19.5" cy="9.5" r="0.5" fill="white"/>
  
  <!-- Koala nose -->
  <ellipse cx="16" cy="13" rx="1" ry="0.8" fill="#1a365d"/>
  
  <!-- Koala body -->
  <ellipse cx="16" cy="22" rx="6" ry="8" fill="#AEDFF7"/>
  
  <!-- Fire element -->
  <path d="M16 4 C18 2, 20 2, 22 4 C20 6, 18 6, 16 4" fill="#FF6B35"/>
  <path d="M16 4 C14 2, 12 2, 10 4 C12 6, 14 6, 16 4" fill="#FFD700"/>
</svg> 